<svg width="358" height="71" viewBox="0 0 358 71" fill="none" xmlns="http://www.w3.org/2000/svg">
<g clip-path="url(#clip0)">
<path d="M110.025 40.7889C110.025 43.9277 109.08 46.1992 107.198 47.6035C105.316 49.0039 102.265 49.708 98.0558 49.708H85.4614V20.8066H107.362V25.5963H90.8676V31.8301H98.1399C102.293 31.8301 105.316 32.5343 107.198 33.9386C109.08 35.3389 110.025 37.6263 110.025 40.7889ZM102.877 44.0311C103.902 43.327 104.415 42.2092 104.415 40.6656C104.415 39.1261 103.906 38.0042 102.897 37.3001C101.884 36.5999 100.286 36.2499 98.0958 36.2499H90.8676V45.0814H98.0157C100.23 45.0814 101.852 44.7313 102.877 44.0311ZM130.845 29.0653H135.999V49.708H130.929V35.5457L119.917 49.708H114.803V29.0653H119.873V43.1838L130.845 29.0653ZM160.311 43.8044C160.311 45.7298 159.402 47.2654 157.588 48.4071C155.774 49.5489 153.327 50.1217 150.251 50.1217C146.707 50.1217 143.588 49.2386 140.901 47.4762L142.687 44.2579C145.069 45.5787 147.468 46.239 149.879 46.239C153.507 46.239 155.321 45.2485 155.321 43.2673C155.321 41.6164 154.036 40.7889 151.457 40.7889H145.89V37.4871H151.208C152.206 37.4871 153.034 37.2603 153.699 36.8068C154.368 36.3533 154.7 35.7526 154.7 35.0087C154.7 33.3577 153.203 32.5343 150.211 32.5343C147.829 32.5343 145.458 33.1668 143.103 34.4318L141.357 31.2135C144.072 29.5069 147.148 28.6516 150.584 28.6516C153.383 28.6516 155.597 29.1767 157.235 30.2229C158.869 31.2652 159.686 32.6695 159.686 34.4318C159.686 36.5801 158.521 38.0798 156.194 38.9311C157.468 39.2335 158.473 39.8183 159.21 40.6855C159.942 41.5528 160.311 42.5911 160.311 43.8044ZM181.627 29.0653H186.697V49.708H181.627V41.2862H170.574V49.708H165.505V29.0653H170.574V37.1569H181.627V29.0653ZM213.712 39.3847V40.956H196.921C197.197 42.5791 197.87 43.8521 198.939 44.7751C200.004 45.694 201.382 46.1555 203.072 46.1555C205.674 46.1555 207.753 45.4275 209.307 43.9675L212.09 46.5692C209.543 48.9362 206.479 50.1217 202.907 50.1217C199.748 50.1217 197.117 49.0755 195.01 46.9829C192.904 44.8904 191.851 42.3444 191.851 39.3449C191.851 36.3453 192.896 33.8113 194.99 31.7506C197.081 29.6859 199.68 28.6516 202.779 28.6516C205.911 28.6516 208.518 29.67 210.592 31.7068C212.67 33.7436 213.712 36.3056 213.712 39.3847ZM196.921 37.8173H208.806C208.806 36.3056 208.237 35.0524 207.104 34.0619C205.995 33.0435 204.569 32.5343 202.823 32.5343C201.189 32.5343 199.852 32.9997 198.811 33.9386C197.773 34.8734 197.145 36.1663 196.921 37.8173Z" fill="#000436"/>
<path d="M278.834 52.628C278.89 55.5758 277.925 58.1138 275.943 60.2461C273.964 62.3784 271.59 63.4167 268.818 63.365C266.019 63.365 263.749 62.4142 262.003 60.5166V70.9991H256.933V42.3086H262.003V44.7035C263.721 42.8297 265.991 41.8949 268.818 41.8949C271.59 41.8392 273.964 42.8815 275.943 45.0138C277.925 47.146 278.89 49.6841 278.834 52.628ZM273.844 52.628C273.844 50.7861 273.279 49.2585 272.142 48.0491C271.033 46.8079 269.579 46.1913 267.777 46.1913C265.202 46.1913 263.276 47.1262 262.003 48.9959V56.264C263.276 58.1337 265.202 59.0686 267.777 59.0686C269.551 59.0686 271.005 58.4639 272.142 57.2545C273.279 55.9855 273.844 54.446 273.844 52.628ZM305.096 52.628V54.1993H288.309C288.585 55.8224 289.258 57.0954 290.323 58.0184C291.388 58.9373 292.77 59.3988 294.46 59.3988C297.063 59.3988 299.141 58.6708 300.691 57.2108L303.478 59.8125C300.927 62.1795 297.867 63.365 294.291 63.365C291.132 63.365 288.501 62.3187 286.394 60.2262C284.292 58.1337 283.239 55.5877 283.239 52.5882C283.239 49.5886 284.284 47.0546 286.374 44.9939C288.469 42.9292 291.064 41.8949 294.167 41.8949C297.299 41.8949 299.902 42.9133 301.98 44.9501C304.059 46.9869 305.096 49.5489 305.096 52.628ZM288.309 51.0606H300.194C300.194 49.5489 299.625 48.2957 298.488 47.3052C297.383 46.2868 295.953 45.7776 294.207 45.7776C292.573 45.7776 291.236 46.243 290.199 47.1819C289.162 48.1167 288.529 49.4096 288.309 51.0606ZM330.489 58.8219H334.353V69.3482H329.323V62.9513H312.244V69.3482H307.218V58.8219H308.588C309.669 58.8219 310.45 58.4918 310.934 57.8314C311.419 57.171 311.747 56.0134 311.911 54.3624L313.201 42.3086H330.489V58.8219ZM315.488 58.8219H325.459V46.4379H317.814L317.065 53.4156C316.789 56.1645 316.26 57.9706 315.488 58.8219ZM358 49.6165V62.9513H352.97V60.6797C350.784 62.4699 348.317 63.365 345.574 63.365C343.191 63.365 341.301 62.7643 339.903 61.5669C338.502 60.3694 337.805 58.7822 337.805 56.801C337.805 54.7921 338.53 53.2127 339.983 52.071C341.441 50.9293 343.411 50.3604 345.906 50.3604H352.97V50.1098C352.97 47.3052 351.308 45.9009 347.985 45.9009C345.658 45.9009 343.387 46.6289 341.169 48.0889L339.547 44.5801C342.43 42.79 345.63 41.8949 349.15 41.8949C351.973 41.8949 354.156 42.5712 355.693 43.9198C357.231 45.2684 358 47.1659 358 49.6165ZM352.97 57.9547V53.3321H347.196C345.81 53.3321 344.729 53.6066 343.952 54.1556C343.179 54.7085 342.791 55.4922 342.791 56.5106C342.791 57.529 343.163 58.3127 343.912 58.8617C344.661 59.4147 345.714 59.6892 347.072 59.6892C349.178 59.6892 351.144 59.1124 352.97 57.9547Z" fill="#000436"/>
<path d="M244.427 51.1083L248.9 52.2341C247.963 55.8742 246.285 58.639 243.862 60.5485C241.435 62.458 238.468 63.4167 234.96 63.4167C231.336 63.4167 228.384 62.6848 226.11 61.2128C223.835 59.7489 222.109 57.6206 220.924 54.8359C219.739 52.0432 219.142 49.0596 219.142 45.8651C219.142 42.3802 219.807 39.3369 221.152 36.7432C222.494 34.1455 224.4 32.1763 226.871 30.8277C229.341 29.4791 232.065 28.8068 235.032 28.8068C238.408 28.8068 241.239 29.6581 243.53 31.3647C245.828 33.0713 247.43 35.4622 248.331 38.5493L243.954 39.5796C243.177 37.149 242.04 35.3707 240.558 34.2648C239.073 33.1509 237.206 32.594 234.952 32.594C232.373 32.594 230.206 33.2106 228.473 34.4438C226.739 35.6731 225.513 37.3359 224.816 39.4086C224.108 41.4891 223.755 43.6334 223.755 45.8412C223.755 48.6856 224.172 51.172 225.005 53.2923C225.833 55.4206 227.131 57.0039 228.889 58.0542C230.647 59.1084 232.545 59.6295 234.591 59.6295C237.086 59.6295 239.193 58.9135 240.919 57.4853C242.645 56.0532 243.814 53.9328 244.427 51.1083Z" fill="#000436"/>
<path fill-rule="evenodd" clip-rule="evenodd" d="M13.6676 40.3157H31.2316C31.7442 42.5077 39.469 55.1065 41.5273 58.9693H24.568C23.4627 57.3303 22.9982 56.284 21.8889 54.4103L13.6676 40.3157ZM19.1178 67.395H56.6726C55.1829 64.6024 36.6217 33.6165 36.0771 31.2893H11.2408L24.568 8.42678H34.8677C33.7945 10.4357 31.1795 14.1951 30.6269 16.2478H39.7133L49.4043 0.0010376H19.1178C18.6933 1.58434 17.6721 2.92101 16.8072 4.3253L0 33.696C0 34.9889 16.9273 63.2816 19.1178 67.395Z" fill="#000436"/>
<path fill-rule="evenodd" clip-rule="evenodd" d="M37.2905 27.6809C43.838 39.9734 52.4518 53.1173 59.0954 65.5888C62.3351 63.4326 77.8728 33.9147 77.8728 33.6959C77.8728 32.4984 71.061 21.2522 69.9998 19.2552L65.2865 26.0658C64.1411 28.58 66.0553 29.7058 68.1818 33.6959L61.7344 44.7432C60.537 46.9949 61.1017 46.8039 59.0954 48.1406C57.5176 45.1768 56.136 42.5234 54.366 39.5995C46.1767 26.0697 46.8454 28.8425 50.6458 22.2945C51.9312 20.0826 54.8666 15.7782 55.4592 13.2402L57.3534 15.6231L62.1509 8.39875C63.3603 5.63393 59.8643 3.27886 59.0954 0.000854492H53.0365C52.4919 2.32012 39.425 24.5103 37.2905 27.6809Z" fill="#000436"/>
</g>
<defs>
<clipPath id="clip0">
<rect width="358" height="71" fill="white"/>
</clipPath>
</defs>
</svg>
